<?xml version="1.0" encoding="UTF-8"?>
<!DOCTYPE svg PUBLIC "-//W3C//DTD SVG 1.1//EN" "http://www.w3.org/Graphics/SVG/1.1/DTD/svg11.dtd">
<!-- Creator: CorelDRAW X6 -->
<svg xmlns="http://www.w3.org/2000/svg" xml:space="preserve" width="528px" height="256px" version="1.1" style="shape-rendering:geometricPrecision; text-rendering:geometricPrecision; image-rendering:optimizeQuality; fill-rule:evenodd; clip-rule:evenodd"
viewBox="0 0 528 256"
 xmlns:xlink="http://www.w3.org/1999/xlink">
 <defs>
  <style type="text/css">
   <![CDATA[
    .fil2 {fill:#2E3233;fill-rule:nonzero}
    .fil0 {fill:#918A82;fill-rule:nonzero}
    .fil3 {fill:#EDD138;fill-rule:nonzero}
    .fil1 {fill:url(#id0)}
    .fil4 {fill:url(#id1)}
    .fil5 {fill:url(#id2)}
   ]]>
  </style>
  <linearGradient id="id0" gradientUnits="userSpaceOnUse" x1="303.947" y1="251.64" x2="447.556" y2="251.64">
   <stop offset="0" style="stop-color:#927C43"/>
   <stop offset="0.0117647" style="stop-color:#927C43"/>
   <stop offset="0.509804" style="stop-color:#D7C790"/>
   <stop offset="1" style="stop-color:#927C43"/>
  </linearGradient>
  <linearGradient id="id1" gradientUnits="userSpaceOnUse" xlink:href="#id0" x1="316.282" y1="193.934" x2="358.983" y2="193.934">
  </linearGradient>
  <linearGradient id="id2" gradientUnits="userSpaceOnUse" xlink:href="#id0" x1="395.619" y1="209.416" x2="439.261" y2="209.416">
  </linearGradient>
 </defs>
 <g id="Camada_x0020_1">
  <metadata id="CorelCorpID_0Corel-Layer"/>
  <g id="_802156240">
   <path class="fil0" d="M14 192c0,-1 0,-1 0,-2 0,-59 0,-118 0,-178 0,-1 0,-2 0,-3l0 0 -14 -9 0 200 14 -8 0 0z"/>
   <path class="fil0" d="M41 176c0,-1 0,-1 0,-1 0,-49 0,-99 0,-148 0,-1 0,-1 0,-2l0 0 -14 -9 0 168 14 -8 0 0z"/>
   <path class="fil0" d="M68 160c0,0 0,-1 0,-1 0,-39 0,-79 1,-116 0,-1 0,-1 -1,-1l0 -1 -14 -8 0 136 14 -8 0 -1z"/>
   <path class="fil0" d="M88 181c5,-3 7,-6 7,-12 0,-25 -1,-51 0,-76 0,-1 0,-2 0,-3l0 0 -15 -9 0 1c0,6 0,12 0,18 0,20 0,39 1,58 0,8 -3,12 -9,16 -17,9 -34,19 -52,29 -4,2 -7,4 -11,6l-1 1 14 9 2 -2c6,-3 11,-6 16,-9 16,-9 32,-18 48,-27z"/>
   <path class="fil0" d="M122 184c0,-22 -1,-49 0,-75 0,-1 0,-2 0,-2l0 0 -15 -9 0 0c0,6 0,12 0,17 0,21 0,41 0,61 1,6 -1,10 -7,12 -9,5 -18,10 -26,15 -4,2 -7,4 -11,6l-29 17 15 9 1 -1c0,0 0,0 0,0 21,-13 43,-25 64,-36 6,-4 8,-7 8,-14z"/>
   <path class="fil0" d="M149 123l0 0 -14 -9 0 1c0,5 0,11 0,16 -1,21 -1,41 0,61 0,6 -2,9 -8,12 -9,5 -19,11 -28,16 -4,2 -8,5 -12,7 -7,4 -15,8 -22,13l-4 2 15 9 0 0c0,-1 1,-1 2,-1 20,-13 40,-24 61,-35l1 -1c7,-4 9,-8 9,-16 0,-29 0,-51 0,-73 0,0 0,-1 0,-2z"/>
   <polygon class="fil1" points="304,256 444,256 448,247 308,247 "/>
   <path class="fil0" d="M329 89c-2,2 -5,3 -7,3 -3,0 -6,-1 -8,-3 -2,-2 -3,-5 -3,-8 0,-3 1,-5 3,-7 2,-2 5,-3 8,-3 2,0 5,1 7,2l-1 1c-2,-1 -4,-2 -6,-2 -3,0 -5,1 -7,3 -2,1 -3,4 -3,6 0,3 1,5 3,7 2,2 4,2 7,2 2,0 4,0 5,-2l0 -6 2 0 0 7z"/>
   <path class="fil0" d="M322 71c-3,0 -6,1 -7,3 -2,2 -3,4 -3,7 0,3 1,5 3,7 1,2 4,3 7,3 2,0 4,-1 6,-2l0 -6 0 0 0 6 0 0c-2,1 -4,2 -6,2 -3,0 -5,-1 -7,-3 -2,-2 -3,-4 -3,-7 0,-3 1,-5 3,-7 2,-2 4,-3 7,-3 2,0 4,1 6,3l0 -1c-2,-1 -4,-2 -6,-2zm0 21c-3,0 -6,-1 -8,-3 -2,-2 -3,-5 -3,-8 0,-3 1,-5 3,-8 2,-2 5,-3 8,-3 2,0 5,1 7,3l0 0 -1 2 -1 0c-1,-2 -3,-3 -5,-3 -3,0 -5,1 -7,3 -1,2 -2,4 -2,6 0,3 1,5 2,6 2,2 4,3 7,3 2,0 3,-1 5,-2l0 -6 2 0 0 7 0 0c-2,2 -5,3 -7,3z"/>
   <path class="fil0" d="M341 72l0 11 4 0c1,0 3,0 4,-2 1,-1 1,-2 1,-3 0,-2 0,-3 -1,-4 -1,-1 -3,-2 -4,-2l-4 0zm4 12l-4 0 0 7 -1 0 0 -20 6 0c1,0 3,1 4,2 1,1 2,3 2,5 0,1 -1,3 -2,4 -1,1 -2,2 -3,2l4 7 -1 0 -5 -7z"/>
   <path class="fil0" d="M342 83l3 0c1,0 2,-1 3,-2 1,-1 2,-2 2,-3 0,-2 -1,-3 -2,-4 -1,-1 -2,-1 -3,-1l-3 0 0 10zm3 1l-4 0 0 -12 4 0c2,0 3,0 4,1 1,2 2,3 2,5 0,1 -1,3 -2,4 -1,1 -2,2 -4,2zm5 7l0 0 -4 -7 0 0c1,-1 2,-1 3,-2 2,-1 2,-3 2,-4 0,-2 0,-4 -2,-5 -1,-1 -2,-1 -3,-2l-5 0 0 20 0 0 0 -7 4 0 5 7zm2 1l-2 0 -5 -7 -3 0 0 7 -2 0 0 -22 6 0c1,1 3,1 4,3 1,1 2,3 2,5 0,2 -1,3 -2,5 -1,0 -2,1 -3,1l5 8z"/>
   <path class="fil0" d="M375 71l1 0 0 15c0,1 0,3 -2,4 -1,1 -2,2 -4,2 -2,0 -4,-1 -5,-2 -1,-2 -2,-3 -2,-5l0 -14 1 0 0 14c0,1 1,3 2,4 1,1 2,1 4,1 1,0 3,0 4,-1 1,-1 1,-3 1,-4l0 -14z"/>
   <path class="fil0" d="M364 71l0 14c0,2 0,3 1,4 2,1 3,2 5,2 1,0 3,-1 4,-2 1,-1 2,-2 2,-3l0 -15 0 0 0 14c0,2 -1,3 -2,4 -1,1 -3,2 -4,2 -2,0 -3,-1 -4,-2 -2,-1 -2,-2 -2,-4l0 -14 0 0zm6 21c-2,0 -4,-1 -5,-2 -2,-1 -2,-3 -2,-5l0 -15 2 0 0 15c0,1 0,2 1,3 1,1 2,2 4,2 1,0 2,-1 3,-2 1,-1 2,-2 2,-3l0 -15 2 0 0 16c0,1 -1,3 -2,4 -2,1 -3,2 -5,2z"/>
   <path class="fil0" d="M390 72l0 11 3 0c2,0 3,0 4,-2 1,-1 2,-2 2,-3 0,-2 -1,-3 -2,-4 -1,-1 -2,-2 -4,-2l-3 0zm0 12l0 7 -1 0 0 -20 5 0c2,0 3,1 4,2 1,1 2,3 2,5 0,1 -1,3 -2,4 -1,2 -3,2 -5,2l-3 0z"/>
   <path class="fil0" d="M390 83l3 0c2,0 3,-1 4,-2 1,-1 1,-2 1,-3 0,-2 0,-3 -1,-4 -1,-1 -2,-1 -4,-1l-3 0 0 10zm3 1l-4 0 0 -12 4 0c2,0 3,0 4,1 2,2 2,3 2,5 0,1 0,3 -2,4 -1,1 -2,2 -4,2zm-4 7l0 0 0 -7 4 0c2,0 3,-1 5,-2 1,-1 1,-3 1,-4 0,-2 0,-4 -1,-5 -1,-1 -3,-1 -4,-2l-5 0 0 20zm1 1l-2 0 0 -22 6 0c2,1 3,1 4,3 2,1 2,3 2,5 0,2 0,3 -2,5 -1,1 -3,2 -5,2l-3 0 0 7z"/>
   <path class="fil0" d="M421 72c-2,0 -5,1 -6,3 -2,1 -3,4 -3,6 0,3 1,5 3,7 1,2 4,2 6,2 3,0 5,0 7,-2 2,-2 2,-4 2,-7 0,-2 0,-5 -2,-6 -2,-2 -4,-3 -7,-3zm8 2c2,2 3,4 3,7 0,3 -1,5 -3,8 -2,2 -5,3 -8,3 -3,0 -5,-1 -7,-3 -2,-3 -3,-5 -3,-8 0,-3 1,-5 3,-7 2,-2 4,-3 7,-3 3,0 6,1 8,3z"/>
   <path class="fil0" d="M421 72c-2,0 -4,1 -6,3 -2,2 -3,4 -3,6 0,3 1,5 3,6 2,2 4,3 6,3 3,0 5,-1 6,-3 2,-1 3,-3 3,-6 0,-2 -1,-4 -3,-6 -1,-2 -3,-3 -6,-3zm0 19c-3,0 -5,-1 -7,-3 -2,-2 -3,-4 -3,-7 0,-3 1,-5 3,-7 2,-2 4,-3 7,-3 3,0 5,1 7,3 2,2 3,4 3,7 0,3 -1,5 -3,7 -2,2 -4,3 -7,3zm0 -20c-3,0 -5,1 -7,3 -2,2 -3,4 -3,7 0,3 1,5 3,7 2,2 4,3 7,3 3,0 5,-1 7,-3 2,-2 3,-4 3,-7 0,-3 -1,-5 -3,-7 -2,-2 -4,-3 -7,-3zm0 21c-3,0 -5,-1 -8,-3 -2,-2 -3,-5 -3,-8 0,-3 1,-6 3,-8 3,-2 5,-3 8,-3 3,0 6,1 8,3 2,2 3,5 3,8 0,3 -1,6 -3,8 -2,2 -5,3 -8,3z"/>
   <path class="fil2" d="M494 206l-22 0 0 -32 22 0c10,0 18,7 18,16 0,9 -8,16 -18,16zm-22 -72l18 0c8,0 15,6 15,13 0,8 -7,14 -15,14l-18 0 0 -27zm36 33l-4 -1 4 -2c8,-2 12,-10 12,-19 0,-15 -12,-26 -27,-26l-38 0 0 101 43 0c17,0 30,-12 30,-29 0,-13 -7,-22 -20,-24z"/>
   <path class="fil3" d="M446 217c0,0 0,0 0,0l0 4 0 -4z"/>
   <path class="fil2" d="M249 118c16,0 30,7 39,18l-12 10c-6,-7 -16,-12 -27,-12 -19,0 -34,15 -34,35 0,20 15,35 34,35 11,0 21,-5 28,-13l11 11c-9,11 -23,17 -39,17 -28,0 -51,-21 -51,-50 0,-29 23,-51 51,-51z"/>
   <polygon class="fil2" points="312,134 360,134 360,119 297,119 297,205 297,205 297,220 312,220 "/>
   <path class="fil2" d="M403 203l4 -3c4,-5 5,-6 9,-11 8,-8 10,-10 18,-20 1,-3 5,-8 5,-14 0,-21 -16,-37 -35,-37l0 0c-2,0 -3,0 -5,1 -15,2 -27,15 -30,31 6,0 12,0 17,0 3,-8 10,-13 18,-13 0,0 1,0 2,0 9,1 16,8 15,18 0,3 -6,11 -7,11 -5,6 -6,7 -7,9 -9,9 -18,19 -26,28 -5,6 -10,11 -15,17l23 0c5,-6 10,-11 14,-17z"/>
   <polygon class="fil4" points="359,168 316,168 316,220 331,220 331,184 359,184 "/>
   <path class="fil5" d="M431 199c-4,0 -9,0 -13,0l0 0 -2 0c-1,0 -2,0 -3,1l0 0c-4,3 -15,17 -17,20l43 0c0,-6 0,-13 0,-21 -3,0 -5,0 -8,0l0 0z"/>
  </g>
 </g>
</svg>
